<?xml version="1.0" encoding="iso-8859-1"?>
<!-- Generator: Adobe Illustrator 16.0.0, SVG Export Plug-In . SVG Version: 6.00 Build 0)  -->
<!DOCTYPE svg PUBLIC "-//W3C//DTD SVG 1.1//EN" "http://www.w3.org/Graphics/SVG/1.1/DTD/svg11.dtd">
<svg version="1.1" id="Capa_1" xmlns="http://www.w3.org/2000/svg" xmlns:xlink="http://www.w3.org/1999/xlink" x="0px" y="0px"
	 width="424.481px" height="424.481px" viewBox="0 0 424.481 424.481" style="enable-background:new 0 0 424.481 424.481;"
	 xml:space="preserve">
<g>
	<g>
		<path d="M346.668,218.561l-67.184-33.661v-73.193c0-25.208-15.15-55.635-21.664-67.546c-5.826-10.659-12.025-20.069-17.921-27.214
			C233.387,9.055,224.361,0,212.241,0s-21.148,9.056-27.659,16.946c-5.896,7.145-12.094,16.555-17.923,27.214
			c-6.512,11.911-21.662,42.338-21.662,67.546v73.193l-67.184,33.661c-4.877,2.443-7.957,7.432-7.957,12.886v18.063
			c0,7.961,6.453,14.414,14.413,14.414h60.728v10.062c-7.35,1.356-12.92,7.787-12.92,15.528v20.069
			c0,8.729,7.076,15.804,15.804,15.804h128.72c8.728,0,15.803-7.074,15.803-15.804v-20.069c0-7.741-5.569-14.172-12.919-15.528
			v-10.062h60.727c7.961,0,14.414-6.453,14.414-14.414v-18.063C354.625,225.992,351.545,221.006,346.668,218.561z M212.241,146.67
			c-13.297,0-24.075-10.779-24.075-24.075c0-13.297,10.778-24.075,24.075-24.075s24.076,10.778,24.076,24.075
			C236.317,135.89,225.538,146.67,212.241,146.67z"/>
		<path d="M245.866,331.963c-0.695,0.435-1.137,1.42-1.57,2.09c-0.816,1.258-1.636,2.512-2.496,3.738
			c-1.66,2.367-3.518,4.578-5.384,6.783c-7.692,9.092-16.165,17.523-24.175,26.332h-0.002c-8.01-8.809-16.482-17.24-24.175-26.332
			c-1.866-2.205-3.723-4.416-5.383-6.783c-0.86-1.228-1.681-2.48-2.496-3.738c-0.434-0.67-0.875-1.655-1.571-2.09
			c-3.803-2.371-5.899,9.596-6.182,11.678c-1.569,11.557,1.17,23.424,5.468,34.126c4.637,11.545,11.395,22.145,19.464,31.583
			c3.982,4.656,8.209,9.095,12.373,13.588c1.911,2.059,3.093,2.059,5.004,0c4.164-4.493,8.391-8.932,12.373-13.588
			c8.068-9.438,14.827-20.038,19.464-31.583c4.298-10.702,7.037-22.569,5.468-34.126
			C251.764,341.559,249.668,329.592,245.866,331.963z"/>
	</g>
</g>
<g>
</g>
<g>
</g>
<g>
</g>
<g>
</g>
<g>
</g>
<g>
</g>
<g>
</g>
<g>
</g>
<g>
</g>
<g>
</g>
<g>
</g>
<g>
</g>
<g>
</g>
<g>
</g>
<g>
</g>
</svg>
